<?xml version="1.0" encoding="utf-8"?>
<!-- Generator: Adobe Illustrator 25.2.1, SVG Export Plug-In . SVG Version: 6.00 Build 0)  -->
<svg version="1.1" id="Capa_1" xmlns="http://www.w3.org/2000/svg" xmlns:xlink="http://www.w3.org/1999/xlink" x="0px" y="0px"
	 viewBox="0 0 53.9 53.9" style="enable-background:new 0 0 53.9 53.9;" xml:space="preserve">
<style type="text/css">
	.st0{fill:#EFCE4A;}
</style>
<g>
	<polygon class="st0" points="26.9,42.2 12.1,50 15,33.4 2.9,21.8 19.6,19.3 26.9,4.4 34.3,19.3 51,21.8 38.9,33.4 41.8,50 	"/>
	<path class="st0" d="M26.9,6.6l6.3,12.7l0.5,0.9l1,0.2l14.1,2.1l-10.2,9.9l-0.8,0.7l0.2,1l2.4,14l-12.6-6.6L26.9,41L26,41.5
		l-12.5,6.6l2.4-14l0.2-1l-0.8-0.7L5.1,22.5l14.1-2.1l1-0.2l0.5-0.9L26.9,6.6 M26.9,2.1l-8,16.3L0.8,21.1l13.1,12.7l-3.1,18
		l16.1-8.5l16.2,8.5l-3.1-18l13.1-12.7L35,18.4L26.9,2.1L26.9,2.1z"/>
</g>
</svg>
