<?xml version="1.0" encoding="utf-8"?>
<!-- Generator: Adobe Illustrator 25.2.1, SVG Export Plug-In . SVG Version: 6.00 Build 0)  -->
<svg version="1.1" id="Capa_1" xmlns="http://www.w3.org/2000/svg" xmlns:xlink="http://www.w3.org/1999/xlink" x="0px" y="0px"
	 viewBox="0 0 53.9 53.9" style="enable-background:new 0 0 53.9 53.9;" xml:space="preserve">
<style type="text/css">
	.st0{fill:#EFCE4A;}
</style>
<g>
	<path class="st0" d="M26.9,11.1l4.5,9.1l0.9,1.9l2.1,0.3l10.1,1.5l-7.3,7.1l-1.5,1.5l0.4,2.1l1.7,10l-9-4.7l-1.9-1l-1.9,1l-9,4.7
		l1.7-10l0.4-2.1l-1.5-1.5l-7.3-7.1l10.1-1.5l2.1-0.3l0.9-1.9L26.9,11.1 M26.9,2.1l-8.1,16.4L0.8,21.1l13.1,12.7l-3.1,18l16.2-8.5
		l16.2,8.5l-3.1-18l13.1-12.7L35,18.4L26.9,2.1L26.9,2.1z"/>
</g>
</svg>
